<svg width="100" height="100" viewBox="0 0 100 100" fill="none" xmlns="http://www.w3.org/2000/svg">
<path d="M96.4285 71.4285H82.1427C81.3699 71.4285 80.618 71.6791 79.9999 72.1427L67.857 81.2498L55.714 72.1427C55.0959 71.6789 54.344 71.4285 53.5712 71.4285H3.5715C1.59898 71.4285 0 73.0274 0 74.9999V82.1427C0.0117187 92.0001 7.99972 99.9881 17.8571 99.9998H82.1427C92.0001 99.9881 99.9881 92.0001 99.9998 82.1427V74.9999C100 73.0274 98.401 71.4285 96.4285 71.4285Z" fill="#FF9F0A"/>
<path d="M96.4285 57.1429H3.5715C1.59898 57.1429 0 58.7419 0 60.7142C0 62.6865 1.59898 64.2857 3.5715 64.2857H96.4285C98.401 64.2857 100 62.6867 100 60.7142C100 58.7417 98.401 57.1429 96.4285 57.1429Z" fill="#FF9F0A"/>
<path d="M99.4149 39.087C93.7351 41.1727 87.3784 41.5881 81.0898 39.903C64.8709 35.5572 55.2459 18.8862 59.5918 2.6674C59.7903 1.92626 60.0147 1.19889 60.2635 0.485993C58.0784 0.168305 55.844 0.00261635 53.5714 0H46.4286C20.7991 0.0295061 0.0295061 20.7991 0 46.4286C0 48.4011 1.59898 50.0001 3.5715 50.0001H96.4285C98.401 50.0001 100 48.4011 100 46.4286C99.9971 43.9303 99.7972 41.4782 99.4149 39.087Z" fill="#FF9F0A"/>
</svg>
